<svg width="512" height="512" viewBox="0 0 512 512" fill="none" xmlns="http://www.w3.org/2000/svg">
<g clip-path="url(#clip0)">
<path d="M333.193 115.036C304.289 56.0162 243.825 16.9961 176.004 16.9961C78.9589 16.9961 0.00770626 95.4992 0.00770626 191.992C0.00770626 218.215 5.63757 243.35 16.7493 266.784L0.298699 349.047C-1.79525 359.519 7.44253 368.775 17.9163 366.703L101.193 350.238C112.406 355.557 124.006 359.602 135.925 362.389C109.208 235.851 205.122 117.074 333.193 115.036V115.036Z" fill="#00A389"/>
<path d="M495.254 394.781C498.128 388.72 500.627 382.544 502.765 376.267H502.216C539.663 266.353 460.912 150.832 344.653 145.207C344.651 145.201 344.65 145.195 344.648 145.189C244.614 140.579 161.504 220.673 161.504 319.989C161.504 416.4 239.863 494.842 336.243 494.982C362.385 494.947 387.443 489.319 410.809 478.235C502.014 496.267 494.901 494.985 496.996 494.985C506.475 494.985 513.556 486.299 511.705 477.044L495.254 394.781Z" fill="#00A389"/>
<path d="M293.953 384.719C303.172 384.719 311.063 377.062 311.141 367.531C311.063 358.156 303.172 350.5 293.953 350.5C284.422 350.5 276.688 358.156 276.766 367.531C276.688 377.062 284.422 384.719 293.953 384.719ZM293.953 299.016C303.172 299.016 311.063 291.359 311.141 281.828C311.063 272.453 303.172 264.797 293.953 264.797C284.422 264.797 276.688 272.453 276.766 281.828C276.688 291.359 284.422 299.016 293.953 299.016ZM390.809 317.766C390.809 278.781 380.418 246.359 359.871 218.547H333.23C349.09 239.172 361.355 280.734 361.355 317.766C361.355 354.875 349.09 396.438 333.23 417.063H359.871C380.418 389.25 390.809 356.75 390.809 317.766Z" fill="white"/>
</g>
<defs>
<clipPath id="clip0">
<rect width="512" height="512" fill="white"/>
</clipPath>
</defs>
</svg>
